PathFileType	4	(X/Y/Z)	C:\Users\Basilio\Documents\Thesis Gigler\squatting_fais\c3dfiles\038\SJ_pre5\markers_experimental.trc
DataRate	CameraRate	NumFrames	NumMarkers	Units	OrigDataRate	OrigDataStartFrame	OrigNumFrames
200.000000	200.000000	4	61	mm	200.000000	377	1510
Frame#	Time	FHD			LBHD			RBHD			C7			T10			CLAV			LSHO			LUUPA			LMUPA			LDUPA			LLEP			LMEP			LRAD			LUL			LRFIN			RSHO			RUPA1			RMUPA			RDUPA			RLEP			RMEP			RRAD			RUL			RUFIN			LASI			RASI			USACR			LSACR			RSACR			LTHI1			LTHI2			LTHI3			LTHI4			LLFC			LMFC			LTIB1			LTIB2			LTIB3			LTIB4			LLMAL			LMMAL			LHEE			LMT1			LMT2			LMT5			RTHI			RTHI2			RTHI3			RTHI4			RLFC			RMFC			RTIB1			RTIB2			RTIB3			RTIB4			RLMAL			RMMAL			RHEE			RMT1			RMT2			RMT5			
		X1	Y1	Z1	X2	Y2	Z2	X3	Y3	Z3	X4	Y4	Z4	X5	Y5	Z5	X6	Y6	Z6	X7	Y7	Z7	X8	Y8	Z8	X9	Y9	Z9	X10	Y10	Z10	X11	Y11	Z11	X12	Y12	Z12	X13	Y13	Z13	X14	Y14	Z14	X15	Y15	Z15	X16	Y16	Z16	X17	Y17	Z17	X18	Y18	Z18	X19	Y19	Z19	X20	Y20	Z20	X21	Y21	Z21	X22	Y22	Z22	X23	Y23	Z23	X24	Y24	Z24	X25	Y25	Z25	X26	Y26	Z26	X27	Y27	Z27	X28	Y28	Z28	X29	Y29	Z29	X30	Y30	Z30	X31	Y31	Z31	X32	Y32	Z32	X33	Y33	Z33	X34	Y34	Z34	X35	Y35	Z35	X36	Y36	Z36	X37	Y37	Z37	X38	Y38	Z38	X39	Y39	Z39	X40	Y40	Z40	X41	Y41	Z41	X42	Y42	Z42	X43	Y43	Z43	X44	Y44	Z44	X45	Y45	Z45	X46	Y46	Z46	X47	Y47	Z47	X48	Y48	Z48	X49	Y49	Z49	X50	Y50	Z50	X51	Y51	Z51	X52	Y52	Z52	X53	Y53	Z53	X54	Y54	Z54	X55	Y55	Z55	X56	Y56	Z56	X57	Y57	Z57	X58	Y58	Z58	X59	Y59	Z59	X60	Y60	Z60	X61	Y61	Z61	

378	1.885	-196.6880645751954	1596.634887695313	-893.5847167968752	-328.2735595703126	1498.082397460938	-955.0671997070315	-319.7378540039063	1493.314086914063	-808.8784179687502	-362.6753234863282	1380.204956054688	-880.2475585937502	-481.7831420898439	1125.245971679688	-875.7794189453127	-242.2554321289063	1301.05908203125	-890.152770996094	-269.8306579589844	1358.427978515625	-1053.94921875	-346.3484497070313	1216.446166992188	-1235.92724609375	-316.4542236328126	1176.14013671875	-1222.709716796875	-347.0055236816407	1154.967407226563	-1269.207153320313	-351.8955078125001	1091.298583984375	-1285.855834960938	-434.7543334960939	1090.185913085938	-1275.260620117188	-421.704803466797	895.5709228515627	-1079.395629882813	-375.8631591796876	851.6890869140627	-1114.655151367188	-408.6917724609376	873.8310546875002	-1011.216613769531	-258.2746582031251	1337.0888671875	-726.3177490234376	-286.8804016113282	1196.29052734375	-554.7382812500001	-281.1992492675782	1149.853759765625	-567.7038574218751	-299.1762084960938	1143.288452148438	-510.9837646484376	-310.4060974121094	1072.111938476563	-482.6481018066407	-393.4809570312501	1079.33447265625	-474.4166870117189	-404.6852416992189	873.1863403320315	-648.5167846679689	-352.4175720214844	831.5644531250002	-622.8540649414064	-379.6017150878907	860.6550292968752	-715.0556030273439	-411.1586914062501	893.627868652344	-992.334167480469	-397.3071594238282	903.8371582031252	-747.0490722656251	-552.6757812500001	995.8359985351565	-863.8991699218752	-577.2674560546876	970.8016357421877	-889.6411743164065	-571.2211914062501	971.4826660156252	-832.2236328125002	-380.1797180175782	668.7489624023439	-1130.887329101563	-316.2460937500001	615.9176635742189	-1153.970703125	-274.7546386718751	637.7267456054689	-1136.824096679688	-314.5127563476563	554.8426513671876	-1147.859985351563	-293.0692749023438	503.8604125976564	-1150.626708984375	-255.9053192138672	489.3407592773439	-1049.418823242188	-269.6289367675782	313.2519836425782	-1093.6689453125	-338.8142395019532	285.0814208984376	-1143.49267578125	-300.8790283203126	272.5133972167969	-1123.704711914063	-322.0973205566407	196.9352111816407	-1088.3359375	-436.1362304687501	84.19180297851564	-1086.690307617188	-378.7931823730469	97.28981018066409	-1025.552856445313	-470.8113708496095	43.80590438842774	-1022.426940917969	-268.0545043945313	47.25666809082032	-1083.15869140625	-278.5698242187501	51.4671974182129	-1132.755493164063	-330.4981384277344	30.75527954101563	-1165.996459960938	-402.895965576172	690.7750244140626	-643.9146728515626	-349.9037780761719	656.3163452148439	-623.8640136718751	-319.6308898925782	671.9475097656251	-620.4376220703126	-338.9737243652344	570.7117309570314	-633.1512451171876	-273.5741577148438	468.5428161621095	-624.2449951171876	-252.6530151367188	473.0490722656251	-731.6719970703126	-262.3694458007813	294.6890563964844	-656.8396606445314	-366.2262573242188	240.8688201904297	-645.0910034179689	-320.1475524902344	230.9962005615235	-648.2308959960939	-317.9289550781251	181.0245666503907	-680.1736450195314	-422.1851501464845	88.35363769531251	-677.6239013671876	-373.1735534667969	89.5813446044922	-747.9017944335939	-466.5701293945314	39.47025680541993	-757.4155273437501	-264.0048828125001	48.47914123535158	-673.9740600585939	-281.4214172363282	54.07064819335939	-630.8049316406251	-337.0773620605469	35.46048736572266	-601.3493041992189	
379	1.89	-196.3377685546876	1595.786865234375	-893.5920410156252	-328.0407409667969	1497.03662109375	-955.0911254882815	-319.4730529785157	1492.227905273438	-808.7651977539065	-362.3358459472657	1379.3720703125	-880.3155517578127	-481.7339782714845	1124.477661132813	-875.7412109375002	-242.0594024658204	1299.90869140625	-890.0622558593752	-269.4596252441407	1357.34326171875	-1053.97607421875	-346.0608215332032	1215.6201171875	-1236.058837890625	-316.1045227050782	1175.272338867188	-1222.717041015625	-346.9131469726563	1154.092529296875	-1269.3408203125	-351.6378479003907	1090.218139648438	-1285.926025390625	-434.854705810547	1089.779296875	-1275.326538085938	-422.1442260742189	895.0393676757815	-1079.517333984375	-376.2292480468751	850.8828735351565	-1114.580688476563	-408.906463623047	873.313171386719	-1011.251281738281	-258.0878906250001	1336.308837890625	-726.3516235351564	-286.7587280273438	1195.297729492188	-554.9287109375001	-280.6625061035157	1148.946044921875	-567.4579467773439	-298.8569335937501	1142.444458007813	-511.1126403808595	-310.1132507324219	1071.255249023438	-482.6708984375001	-393.3229064941407	1078.658813476563	-474.360321044922	-404.5675354003907	872.6556396484377	-648.5593261718751	-352.4087829589844	830.8474731445315	-623.0053100585939	-379.9596862792969	860.1452636718752	-715.1143798828126	-411.3018188476564	892.8811645507815	-992.3992919921877	-397.3445739746095	903.126159667969	-747.1119995117189	-553.0133056640626	995.146423339844	-863.6802978515627	-577.3132934570314	970.125915527344	-889.5338134765627	-571.2951049804689	970.6575927734377	-832.0484619140627	-380.1476135253907	668.3994140625001	-1130.993774414063	-316.2179260253907	615.6947021484376	-1154.285034179688	-274.7726135253907	637.5877685546876	-1137.02490234375	-314.9004821777344	554.9038085937501	-1147.979248046875	-292.7855224609376	503.8103332519532	-1150.875122070313	-255.4560852050782	489.1564941406251	-1049.716918945313	-269.3800354003907	313.0599365234376	-1093.823486328125	-338.5042419433594	284.8892517089844	-1143.68017578125	-300.7950439453126	272.4413757324219	-1123.837890625	-321.9342041015626	196.7830657958985	-1088.4306640625	-436.2467041015626	84.4081497192383	-1086.520629882813	-378.7338562011719	97.31745910644534	-1025.534545898438	-470.7860717773439	43.88317489624024	-1022.480834960938	-268.0268249511719	47.20343399047852	-1083.178344726563	-278.3999023437501	51.78326797485353	-1132.683837890625	-330.5393066406251	31.08260917663575	-1165.942749023438	-402.7053527832032	690.3235473632814	-644.0097656250001	-349.7340698242188	656.0744018554689	-623.5479736328126	-319.3572998046876	671.3118286132814	-620.4741821289064	-338.6618957519532	570.3934326171876	-633.0189819335939	-273.2322082519532	468.3093566894532	-623.9226684570314	-251.8824157714844	473.1358032226564	-731.3696899414064	-262.1178283691407	294.5288391113282	-656.7280883789064	-366.0586547851563	240.764144897461	-645.0115356445314	-319.9510498046876	230.8752593994141	-648.1678466796876	-317.8554382324219	181.0533294677735	-680.1904296875001	-422.1065063476564	88.33880615234376	-677.6746215820314	-373.1020202636719	89.59452056884767	-747.9491577148439	-466.5766906738282	39.49364852905274	-757.4009399414064	-263.9887695312501	48.45467758178712	-673.9553833007814	-281.3720397949219	54.0493507385254	-630.8679809570314	-337.0803527832032	35.44248962402344	-601.3760986328126	
380	1.895	-196.3452758789063	1594.593872070313	-893.657409667969	-327.7799682617188	1496.09423828125	-955.1206665039065	-319.4941406250001	1491.251098632813	-808.7644653320315	-361.9987182617188	1378.462280273438	-880.3150024414065	-481.7797851562501	1123.690063476563	-875.6636352539065	-241.6855468750001	1298.99951171875	-890.1677246093752	-269.0010986328126	1356.662719726563	-1053.883056640625	-345.7083740234376	1214.706176757813	-1236.074096679688	-315.7570495605469	1174.161499023438	-1222.9072265625	-346.4923095703126	1153.036743164063	-1269.425537109375	-351.4116210937501	1089.482055664063	-1286.116943359375	-434.6253967285157	1089.07373046875	-1275.513671875	-422.466766357422	894.2488403320315	-1079.406616210938	-376.5136413574219	850.1452636718752	-1114.591918945313	-409.1201171875001	872.851013183594	-1011.195922851563	-257.3601379394532	1335.701904296875	-726.2889404296876	-286.2955932617188	1194.548828125	-554.6828613281251	-280.5237121582032	1147.953857421875	-567.5083007812501	-298.5375366210938	1141.679321289063	-511.0632324218751	-309.9135131835938	1070.39013671875	-482.5546875000001	-393.0559082031251	1077.782958984375	-474.3250122070314	-404.6604919433595	872.0695800781252	-648.5703735351564	-352.4333496093751	830.1029052734377	-623.1613769531251	-380.0425109863282	859.5913696289065	-715.0723876953126	-411.6442871093751	892.1712646484377	-992.3262329101565	-397.4939270019532	902.1855468750002	-746.9845581054689	-553.1760253906251	994.4971313476565	-863.569519042969	-577.4426269531251	969.5389404296877	-889.3834228515627	-571.3544311523439	970.0842895507815	-831.9163208007815	-380.3016052246094	668.0129394531251	-1131.152221679688	-316.2420043945313	615.4396362304689	-1154.524780273438	-274.8097229003907	637.4412841796876	-1137.2578125	-314.7453308105469	554.7103881835939	-1148.311401367188	-292.5774536132813	503.6577758789064	-1151.146606445313	-255.116928100586	489.042205810547	-1050.069946289063	-269.2467346191407	313.0032348632813	-1094.100708007813	-338.8942260742188	284.9904174804688	-1143.766845703125	-300.6645812988282	272.2907409667969	-1124.025146484375	-321.8736572265626	196.7020568847657	-1088.500122070313	-436.1148071289064	84.09555053710939	-1086.634765625	-378.6604309082032	97.31775665283206	-1025.54443359375	-470.8348083496095	43.84137344360352	-1022.427917480469	-268.1131591796876	47.14986038208009	-1083.140991210938	-278.3833923339844	51.7182960510254	-1132.699584960938	-330.4564514160157	30.69432067871094	-1166.047973632813	-402.6493530273439	689.7974243164064	-643.8672485351564	-349.5776062011719	655.6627197265626	-623.4485473632814	-319.2703247070313	670.9168701171876	-620.3515014648439	-338.2986450195313	569.8544921875001	-632.7645874023439	-272.6172180175782	468.1824340820314	-623.4443969726564	-251.475326538086	472.8406677246095	-731.0927734375001	-261.8105773925782	294.3965148925782	-656.6169433593751	-365.9048767089844	240.6100769042969	-644.9364624023439	-319.7322082519532	230.7436065673829	-648.1430664062501	-317.5600280761719	180.5914306640625	-680.2255859375001	-422.0742797851564	88.33773803710939	-677.6683349609376	-373.0352783203126	89.54466247558595	-747.9166870117189	-466.5965576171876	39.51439666748048	-757.4537963867189	-263.9895629882813	48.48374938964845	-673.9398803710939	-281.3657226562501	54.04283523559572	-630.8596191406251	-337.0924377441407	35.44943618774415	-601.3679199218751	
381	1.9	-195.9588012695313	1593.757080078125	-893.6287841796877	-327.4776611328126	1495.0087890625	-955.183288574219	-319.1701660156251	1490.0927734375	-808.7400512695315	-361.5764160156251	1377.399047851563	-880.3402099609377	-481.7337036132814	1122.941040039063	-875.6035766601565	-241.3543701171876	1298.173095703125	-890.222839355469	-268.6535339355469	1355.1728515625	-1053.879028320313	-345.1449279785157	1213.73291015625	-1236.20068359375	-315.5041809082032	1173.3955078125	-1223.046142578125	-346.1172485351563	1152.2001953125	-1269.55419921875	-351.0170288085938	1088.636474609375	-1286.388671875	-434.4039306640626	1088.405883789063	-1275.764038085938	-422.5488281250001	893.471862792969	-1079.276611328125	-376.8223876953126	849.6148071289065	-1114.5615234375	-409.5315856933595	872.3067626953127	-1011.1640625	-257.1935424804688	1334.24951171875	-726.5347900390626	-285.8565673828126	1193.61181640625	-554.8388671875001	-280.1331176757813	1147.179809570313	-567.7377319335939	-298.2644042968751	1140.736572265625	-510.9854431152345	-309.6643981933594	1069.589111328125	-482.5440063476564	-392.8487548828126	1077.078857421875	-474.1899719238282	-404.8730773925782	871.1761474609377	-648.4281005859376	-352.6324462890626	829.3303222656252	-622.9860839843751	-380.1907958984376	858.8615722656252	-714.8404541015626	-412.0484313964845	891.3757324218752	-992.1836547851565	-397.5509643554689	901.5382080078127	-746.9758300781251	-553.0672607421876	993.7534179687502	-863.4905395507815	-577.5903930664064	968.8330688476565	-889.2258911132815	-571.4378662109376	969.2210693359377	-831.900085449219	-380.3023071289063	667.6285400390626	-1131.250366210938	-316.1697387695313	615.2224121093751	-1154.700073242188	-274.8582153320313	637.3076782226564	-1137.421020507813	-314.5470886230469	554.4352416992189	-1148.617309570313	-292.5330200195313	502.9775390625001	-1151.549926757813	-254.9408264160157	488.7878723144532	-1050.50634765625	-269.0445556640626	312.8648071289063	-1094.34814453125	-338.2598571777344	285.1395874023438	-1143.890502929688	-300.4559020996094	272.0904846191407	-1124.122314453125	-321.8211975097657	196.6626281738282	-1088.550415039063	-436.2024230957032	84.40872955322267	-1086.469970703125	-378.5706481933594	97.39379882812503	-1025.4892578125	-470.7542724609376	43.84469223022462	-1022.421936035156	-268.1303405761719	47.17851257324219	-1083.231201171875	-278.6042480468751	51.3730812072754	-1132.756103515625	-330.6069946289063	30.73178291320801	-1166.047729492188	-402.5158691406251	689.3064575195314	-643.5109252929689	-349.4213562011719	655.1228027343751	-623.3657836914064	-319.2319641113282	670.8163452148439	-619.9622192382814	-337.9556274414063	569.3703613281251	-632.4761352539064	-272.1059875488282	467.9285278320314	-623.1821899414064	-251.0594940185547	472.6030578613282	-730.7948608398439	-261.5111083984376	294.1231689453126	-656.5778808593751	-365.7116699218751	240.3849334716797	-644.9079589843751	-319.5360107421876	230.6117553710938	-648.1388549804689	-317.4163818359376	180.4370880126953	-680.2150878906251	-422.0505676269532	88.31074523925783	-677.6688842773439	-373.0726623535157	89.5763626098633	-747.9594116210939	-466.5640869140626	39.51147842407227	-757.4563598632814	-263.9471740722657	48.52072525024415	-673.9191284179689	-281.3654479980469	54.04302215576173	-630.8021850585939	-337.0784301757813	35.45655822753907	-601.3608398437501	
